<svg xmlns="http://www.w3.org/2000/svg" width="73" height="71" viewBox="0 0 73 71">
  <g id="Group_46" data-name="Group 46" transform="translate(-306 129)">
    <g id="Group_41" data-name="Group 41" transform="translate(118 -612)">
      <g id="Group_24" data-name="Group 24" transform="translate(19 26)">
        <g id="Ellipse_1" data-name="Ellipse 1" transform="translate(169 457)" fill="#fff" stroke="#fff" stroke-width="1">
          <ellipse cx="36.5" cy="35.5" rx="36.5" ry="35.5" stroke="none"/>
          <ellipse cx="36.5" cy="35.5" rx="36" ry="35" fill="none"/>
        </g>
      </g>
      <path id="Icon_material-email" data-name="Icon material-email" d="M30,6H6A3,3,0,0,0,3.015,9L3,27a3.009,3.009,0,0,0,3,3H30a3.009,3.009,0,0,0,3-3V9A3.009,3.009,0,0,0,30,6Zm0,6L18,19.5,6,12V9l12,7.5L30,9Z" transform="translate(207 501)"/>
    </g>
  </g>
</svg>
