<svg xmlns="http://www.w3.org/2000/svg" width="73" height="71" viewBox="0 0 73 71">
  <g id="Group_47" data-name="Group 47" transform="translate(-445 149)">
    <g id="Group_43" data-name="Group 43" transform="translate(445 -149)">
      <g id="Ellipse_1" data-name="Ellipse 1" fill="#fff" stroke="#fff" stroke-width="1">
        <ellipse cx="36.5" cy="35.5" rx="36.5" ry="35.5" stroke="none"/>
        <ellipse cx="36.5" cy="35.5" rx="36" ry="35" fill="none"/>
      </g>
      <path id="Icon_awesome-share-alt" data-name="Icon awesome-share-alt" d="M24.75,22.5a6.721,6.721,0,0,0-4.2,1.469l-7.206-4.5a6.789,6.789,0,0,0,0-2.931l7.206-4.5A6.738,6.738,0,1,0,18.16,8.215l-7.206,4.5a6.75,6.75,0,1,0,0,10.562l7.206,4.5A6.751,6.751,0,1,0,24.75,22.5Z" transform="translate(19.5 17.25)"/>
    </g>
  </g>
</svg>
